<?xml version="1.0" encoding="utf-8"?>
<!-- Generator: Adobe Illustrator 15.0.0, SVG Export Plug-In . SVG Version: 6.00 Build 0)  -->
<!DOCTYPE svg PUBLIC "-//W3C//DTD SVG 1.1//EN" "http://www.w3.org/Graphics/SVG/1.1/DTD/svg11.dtd">
<svg version="1.1" id="Capa_1" xmlns="http://www.w3.org/2000/svg" xmlns:xlink="http://www.w3.org/1999/xlink" x="0px" y="0px"
	 width="1095.331px" height="396.04px" viewBox="0 17.932 1095.331 396.04" enable-background="new 0 17.932 1095.331 396.04"
	 xml:space="preserve">
<g>
	<g>
		<g>
			<g>
				<g>
					<polygon points="353.354,192.942 340.84,180.429 391.358,129.909 340.84,79.391 353.354,66.878 416.385,129.909 					"/>
				</g>
			</g>
		</g>
		<g>
			<g>
				<path d="M116.054,331.521H19.651V313.91h96.403c19.466,0,33.37-9.271,44.957-25.492l88.987-134.87
					c14.832-20.394,33.833-32.444,59.326-32.444h94.547v17.612h-94.547c-19.467,0-33.372,9.271-44.959,25.491l-88.986,134.871
					C160.548,319.47,141.081,331.521,116.054,331.521z"/>
			</g>
		</g>
		<g>
			<g>
				<g>
					<polygon points="353.354,385.748 340.84,373.234 391.358,322.717 340.84,272.197 353.354,259.683 416.385,322.717 					"/>
				</g>
			</g>
		</g>
		<g>
			<g>
				<path d="M403.871,331.521H308.86c-25.028,0-44.494-12.051-59.326-32.443l-88.522-135.334
					c-11.587-15.758-25.491-25.491-44.957-25.491H19.651V120.64h96.403c25.027,0,44.494,12.051,59.325,32.443l88.986,135.334
					c11.587,15.758,25.492,25.492,44.959,25.492h94.547V331.521z"/>
			</g>
		</g>
	</g>
	<g>
		<path d="M451.261,166.698V74.526h16.354c1.362,0,2.503,0.119,3.422,0.355c0.919,0.237,1.689,0.608,2.312,1.111
			c0.622,0.504,1.096,1.171,1.422,2c0.325,0.831,0.607,1.837,0.845,3.022l1.511,8.622c3.378-5.214,7.169-9.333,11.377-12.355
			c4.207-3.022,8.8-4.533,13.777-4.533c4.207,0,7.585,1.008,10.133,3.022l-3.556,20.266c-0.237,1.245-0.711,2.12-1.422,2.622
			c-0.711,0.504-1.659,0.755-2.844,0.755c-1.009,0-2.193-0.133-3.556-0.4c-1.364-0.267-3.082-0.4-5.155-0.4
			c-7.23,0-12.919,3.853-17.065,11.555v56.53H451.261z"/>
		<path d="M586.543,166.698c-2.608,0-4.578-0.355-5.911-1.066c-1.333-0.711-2.444-2.192-3.333-4.444l-1.956-5.066
			c-2.311,1.956-4.532,3.675-6.666,5.155c-2.133,1.482-4.342,2.742-6.622,3.777c-2.281,1.038-4.711,1.807-7.288,2.311
			c-2.578,0.503-5.438,0.756-8.577,0.756c-4.208,0-8.03-0.55-11.467-1.65c-3.437-1.1-6.354-2.72-8.755-4.86
			c-2.399-2.14-4.252-4.801-5.555-7.981c-1.305-3.18-1.956-6.851-1.956-11.012c0-3.27,0.829-6.629,2.489-10.077
			c1.658-3.447,4.533-6.583,8.621-9.408c4.089-2.823,9.6-5.186,16.533-7.088c6.933-1.903,15.673-2.854,26.221-2.854v-3.947
			c0-5.441-1.111-9.375-3.333-11.796c-2.223-2.422-5.378-3.633-9.467-3.633c-3.259,0-5.926,0.355-7.999,1.067
			c-2.075,0.711-3.927,1.511-5.556,2.4c-1.63,0.889-3.215,1.688-4.755,2.4c-1.542,0.711-3.378,1.066-5.511,1.066
			c-1.897,0-3.512-0.458-4.845-1.378c-1.333-0.918-2.386-2.058-3.155-3.422l-4.978-8.622c5.569-4.918,11.747-8.578,18.532-10.978
			c6.784-2.4,14.058-3.6,21.821-3.6c5.569,0,10.591,0.904,15.065,2.711c4.474,1.808,8.267,4.326,11.378,7.555
			c3.11,3.23,5.495,7.066,7.155,11.511c1.658,4.444,2.488,9.304,2.488,14.577v57.597H586.543z M554.9,149.899
			c3.556,0,6.667-0.622,9.333-1.866c2.667-1.245,5.362-3.258,8.089-6.044v-12.622c-5.511,0-10.044,0.36-13.6,1.077
			c-3.556,0.716-6.37,1.614-8.444,2.69s-3.511,2.301-4.311,3.676s-1.2,2.868-1.2,4.481c0,3.169,0.858,5.396,2.578,6.68
			C549.063,149.258,551.58,149.899,554.9,149.899z"/>
		<path d="M618.716,166.698V74.526h17.065c1.719,0,3.156,0.386,4.312,1.155c1.155,0.771,1.969,1.926,2.444,3.467l1.6,5.333
			c1.777-1.658,3.614-3.2,5.511-4.622c1.896-1.422,3.925-2.622,6.089-3.6c2.162-0.978,4.503-1.747,7.021-2.311
			c2.519-0.562,5.259-0.844,8.222-0.844c5.036,0,9.496,0.875,13.378,2.622c3.88,1.749,7.154,4.178,9.821,7.289
			c2.666,3.111,4.681,6.815,6.044,11.11c1.362,4.297,2.045,8.964,2.045,14v58.575h-27.555v-58.575c0-4.502-1.037-8.014-3.11-10.533
			c-2.075-2.518-5.127-3.778-9.155-3.778c-3.022,0-5.866,0.653-8.533,1.956c-2.666,1.304-5.215,3.053-7.644,5.244v65.686H618.716z"
			/>
		<path d="M786.528,166.698c-1.72,0-3.155-0.385-4.312-1.155c-1.155-0.77-1.971-1.925-2.443-3.467l-2.134-7.022
			c-1.837,1.956-3.764,3.733-5.777,5.333c-2.016,1.6-4.193,2.978-6.533,4.133c-2.342,1.156-4.859,2.044-7.555,2.667
			c-2.697,0.622-5.615,0.934-8.756,0.934c-4.799,0-9.243-1.067-13.332-3.2s-7.615-5.213-10.577-9.244
			c-2.964-4.029-5.289-8.962-6.978-14.799c-1.688-5.836-2.533-12.488-2.533-19.955c0-6.873,0.947-13.258,2.844-19.155
			c1.896-5.896,4.578-10.991,8.045-15.288c3.466-4.295,7.628-7.658,12.487-10.088c4.858-2.429,10.222-3.644,16.089-3.644
			c4.739,0,8.755,0.697,12.044,2.089c3.288,1.393,6.266,3.215,8.933,5.466V33.639h27.554v133.06H786.528z M758.617,146.966
			c2.014,0,3.836-0.191,5.467-0.578c1.629-0.385,3.125-0.933,4.488-1.645c1.362-0.711,2.651-1.6,3.867-2.667
			c1.214-1.066,2.413-2.311,3.6-3.733V99.235c-2.134-2.311-4.4-3.925-6.8-4.844c-2.4-0.918-4.934-1.378-7.6-1.378
			c-2.549,0-4.889,0.504-7.021,1.511c-2.134,1.008-3.986,2.622-5.556,4.844c-1.57,2.222-2.8,5.111-3.688,8.667
			c-0.889,3.555-1.334,7.853-1.334,12.888c0,4.859,0.356,8.948,1.067,12.266c0.711,3.319,1.702,6,2.978,8.044
			c1.273,2.044,2.8,3.511,4.577,4.4C754.441,146.522,756.425,146.966,758.617,146.966z"/>
		<path d="M865.988,73.103c6.991,0,13.362,1.097,19.11,3.289c5.747,2.193,10.68,5.333,14.799,9.422
			c4.118,4.089,7.318,9.052,9.6,14.888c2.28,5.837,3.422,12.399,3.422,19.688c0,7.348-1.142,13.97-3.422,19.866
			c-2.281,5.896-5.481,10.903-9.6,15.021c-4.119,4.12-9.052,7.289-14.799,9.511c-5.748,2.222-12.119,3.333-19.11,3.333
			c-7.052,0-13.466-1.111-19.243-3.333s-10.755-5.391-14.933-9.511c-4.178-4.118-7.408-9.125-9.688-15.021
			c-2.282-5.896-3.422-12.518-3.422-19.866c0-7.289,1.14-13.851,3.422-19.688c2.28-5.836,5.511-10.799,9.688-14.888
			c4.178-4.088,9.155-7.229,14.933-9.422C852.522,74.2,858.936,73.103,865.988,73.103z M865.988,147.677
			c6.34,0,11.007-2.236,13.999-6.711c2.992-4.474,4.489-11.273,4.489-20.399c0-9.125-1.497-15.91-4.489-20.354
			s-7.659-6.667-13.999-6.667c-6.519,0-11.288,2.222-14.311,6.667c-3.021,4.444-4.533,11.23-4.533,20.354
			c0,9.126,1.512,15.925,4.533,20.399C854.699,145.441,859.469,147.677,865.988,147.677z"/>
		<path d="M928.027,166.698V74.526h17.065c1.719,0,3.156,0.386,4.312,1.155c1.155,0.771,1.969,1.926,2.444,3.467l1.511,4.977
			c1.54-1.6,3.141-3.066,4.8-4.399c1.658-1.333,3.451-2.489,5.378-3.467c1.925-0.978,3.999-1.747,6.222-2.311
			c2.222-0.562,4.666-0.844,7.333-0.844c5.569,0,10.177,1.438,13.821,4.311c3.645,2.875,6.413,6.71,8.311,11.51
			c1.54-2.844,3.422-5.273,5.645-7.289c2.222-2.014,4.622-3.644,7.199-4.888c2.578-1.245,5.303-2.163,8.178-2.756
			c2.873-0.591,5.732-0.889,8.577-0.889c5.273,0,9.955,0.786,14.044,2.355c4.089,1.571,7.511,3.853,10.266,6.844
			c2.756,2.993,4.845,6.666,6.267,11.021s2.133,9.289,2.133,14.799v58.575h-27.554v-58.575c0-9.54-4.089-14.311-12.266-14.311
			c-3.733,0-6.831,1.23-9.289,3.689c-2.459,2.459-3.688,6-3.688,10.622v58.575H981.18v-58.575c0-5.273-1.038-8.978-3.111-11.11
			c-2.075-2.133-5.126-3.2-9.155-3.2c-2.488,0-4.844,0.564-7.066,1.689c-2.222,1.126-4.311,2.637-6.266,4.533v66.663H928.027z"/>
		<path d="M454.994,370.699v-88.44h4.622c1.54,0,2.429,0.741,2.666,2.222l0.8,12.8c1.719-2.43,3.556-4.651,5.512-6.667
			c1.955-2.014,4.044-3.747,6.266-5.199c2.223-1.451,4.592-2.578,7.111-3.378c2.518-0.8,5.169-1.2,7.955-1.2
			c6.458,0,11.613,1.882,15.466,5.645c3.851,3.764,6.458,8.992,7.821,15.689c1.064-3.674,2.559-6.845,4.482-9.511
			c1.922-2.667,4.126-4.874,6.61-6.622c2.484-1.747,5.191-3.052,8.12-3.911c2.928-0.858,5.931-1.289,9.008-1.289
			c4.378,0,8.312,0.727,11.804,2.178c3.49,1.453,6.462,3.6,8.918,6.444c2.455,2.845,4.333,6.342,5.636,10.489
			c1.301,4.148,1.952,8.889,1.952,14.221v56.531H561.3v-56.531c0-8.65-1.867-15.244-5.6-19.777
			c-3.733-4.532-9.066-6.799-15.999-6.799c-3.082,0-6.03,0.563-8.845,1.688c-2.814,1.126-5.304,2.8-7.466,5.021
			c-2.164,2.223-3.882,4.993-5.155,8.311c-1.275,3.32-1.911,7.17-1.911,11.555v56.531h-8.444v-56.531
			c0-8.592-1.719-15.168-5.155-19.732c-3.438-4.562-8.443-6.844-15.021-6.844c-4.8,0-9.244,1.438-13.332,4.311
			c-4.089,2.875-7.733,6.859-10.933,11.955v66.842H454.994z"/>
		<path d="M652.848,370.699c-1.777,0-2.875-0.83-3.289-2.488l-1.244-11.289c-2.431,2.371-4.844,4.504-7.244,6.4
			c-2.399,1.896-4.903,3.496-7.511,4.799c-2.608,1.305-5.422,2.297-8.444,2.979c-3.021,0.68-6.341,1.021-9.954,1.021
			c-3.022,0-5.956-0.445-8.8-1.334c-2.845-0.889-5.364-2.25-7.556-4.088c-2.192-1.836-3.955-4.191-5.288-7.066
			c-1.333-2.873-2-6.324-2-10.355c0-3.732,1.066-7.199,3.2-10.398c2.133-3.201,5.466-5.984,9.999-8.355
			c4.533-2.369,10.369-4.268,17.51-5.689s15.718-2.25,25.732-2.488v-9.244c0-8.178-1.764-14.473-5.289-18.888
			c-3.525-4.413-8.755-6.621-15.688-6.621c-4.267,0-7.896,0.593-10.889,1.777c-2.993,1.186-5.526,2.488-7.6,3.911
			c-2.074,1.422-3.764,2.726-5.066,3.911c-1.304,1.185-2.399,1.777-3.288,1.777c-1.187,0-2.075-0.533-2.667-1.599l-1.511-2.578
			c4.622-4.622,9.479-8.117,14.577-10.488c5.095-2.369,10.873-3.556,17.332-3.556c4.74,0,8.889,0.756,12.443,2.267
			c3.556,1.512,6.503,3.675,8.845,6.489c2.34,2.814,4.103,6.222,5.288,10.221c1.185,4,1.778,8.459,1.778,13.377v57.598H652.848z
			 M617.294,365.988c3.436,0,6.591-0.369,9.466-1.111c2.874-0.74,5.54-1.777,8-3.111c2.458-1.334,4.755-2.918,6.889-4.756
			c2.133-1.836,4.235-3.82,6.311-5.955v-23.02c-8.415,0.236-15.659,0.875-21.732,1.91c-6.074,1.037-11.081,2.443-15.021,4.223
			c-3.941,1.777-6.844,3.896-8.71,6.355c-1.867,2.459-2.801,5.258-2.801,8.398c0,2.965,0.489,5.525,1.467,7.689
			c0.978,2.162,2.267,3.941,3.867,5.332c1.6,1.393,3.466,2.416,5.6,3.066C612.761,365.662,614.983,365.988,617.294,365.988z"/>
		<path d="M706.979,372.121c-5.986,0-10.638-1.658-13.955-4.979c-3.319-3.316-4.978-8.443-4.978-15.377v-60.441h-12.711
			c-0.652,0-1.186-0.178-1.6-0.533c-0.415-0.355-0.622-0.858-0.622-1.511v-3.289l15.11-1.066l2.111-31.643
			c0.058-0.533,0.277-1.007,0.658-1.422c0.38-0.414,0.895-0.622,1.54-0.622h3.957v33.776h27.82v6.311h-27.82v59.998
			c0,2.43,0.311,4.52,0.933,6.266c0.622,1.748,1.48,3.186,2.578,4.311c1.096,1.127,2.385,1.957,3.866,2.49
			c1.48,0.533,3.08,0.799,4.8,0.799c2.133,0,3.969-0.311,5.511-0.934c1.54-0.621,2.873-1.303,4-2.043
			c1.125-0.74,2.044-1.422,2.755-2.045s1.273-0.934,1.689-0.934c0.474,0,0.947,0.297,1.422,0.889l2.311,3.734
			c-2.252,2.488-5.11,4.488-8.577,5.998C714.312,371.365,710.711,372.121,706.979,372.121z"/>
		<path d="M804.483,294.08c-0.297,0.297-0.577,0.549-0.844,0.756c-0.267,0.208-0.638,0.311-1.111,0.311
			c-0.593,0-1.408-0.399-2.444-1.2c-1.037-0.8-2.415-1.673-4.133-2.622c-1.72-0.947-3.867-1.821-6.444-2.622
			c-2.578-0.8-5.704-1.199-9.377-1.199c-5.098,0-9.615,0.903-13.556,2.711c-3.941,1.808-7.259,4.399-9.955,7.777
			c-2.696,3.377-4.755,7.465-6.177,12.266c-1.423,4.799-2.134,10.191-2.134,16.176c0,6.223,0.726,11.734,2.178,16.533
			c1.451,4.799,3.511,8.844,6.178,12.133c2.666,3.289,5.896,5.793,9.688,7.51c3.791,1.721,7.999,2.578,12.621,2.578
			c4.267,0,7.836-0.502,10.711-1.51c2.873-1.008,5.244-2.104,7.11-3.289c1.867-1.186,3.348-2.281,4.444-3.289
			c1.096-1.008,1.97-1.512,2.622-1.512c0.77,0,1.362,0.297,1.778,0.889l2.311,2.846c-1.364,1.777-3.082,3.438-5.155,4.977
			c-2.075,1.541-4.415,2.875-7.021,4c-2.608,1.127-5.438,2-8.489,2.623c-3.052,0.621-6.236,0.932-9.555,0.932
			c-5.63,0-10.771-1.021-15.422-3.066c-4.652-2.043-8.651-5.006-11.999-8.889c-3.349-3.879-5.955-8.635-7.821-14.266
			c-1.867-5.629-2.8-12.027-2.8-19.199c0-6.754,0.889-12.916,2.666-18.486s4.369-10.37,7.777-14.4
			c3.407-4.029,7.584-7.155,12.533-9.378c4.946-2.222,10.621-3.333,17.021-3.333c5.747,0,10.858,0.92,15.333,2.756
			c4.474,1.837,8.369,4.326,11.688,7.466L804.483,294.08z"/>
		<path d="M827.146,370.699V241.372h8.444v55.998c4.088-5.036,8.755-9.052,13.999-12.044s11.124-4.489,17.644-4.489
			c4.857,0,9.14,0.771,12.844,2.312c3.702,1.541,6.769,3.764,9.199,6.666c2.429,2.904,4.267,6.399,5.511,10.489
			c1.244,4.088,1.867,8.711,1.867,13.865v56.531h-8.444v-56.531c0-8.295-1.897-14.799-5.688-19.509
			c-3.793-4.711-9.6-7.066-17.422-7.066c-5.808,0-11.199,1.497-16.177,4.488c-4.978,2.993-9.422,7.097-13.332,12.31v66.309H827.146z
			"/>
		<path d="M956.647,280.836c4.978,0,9.585,0.86,13.822,2.578c4.235,1.719,7.91,4.222,11.021,7.511
			c3.11,3.288,5.54,7.333,7.288,12.133c1.747,4.799,2.622,10.311,2.622,16.531c0,1.305-0.192,2.193-0.577,2.666
			c-0.385,0.477-0.992,0.713-1.819,0.713h-63.822v1.688c0,6.637,0.77,12.475,2.312,17.51c1.54,5.039,3.732,9.26,6.577,12.666
			c2.845,3.408,6.28,5.971,10.311,7.689c4.029,1.719,8.533,2.578,13.511,2.578c4.444,0,8.295-0.49,11.555-1.467
			c3.258-0.979,6-2.074,8.222-3.289c2.222-1.213,3.984-2.311,5.289-3.289c1.303-0.977,2.251-1.467,2.844-1.467
			c0.77,0,1.362,0.297,1.777,0.889l2.312,2.846c-1.422,1.777-3.304,3.438-5.645,4.977c-2.341,1.541-4.948,2.859-7.821,3.955
			c-2.875,1.098-5.955,1.971-9.244,2.623c-3.289,0.65-6.593,0.977-9.91,0.977c-6.045,0-11.556-1.053-16.533-3.154
			c-4.978-2.104-9.249-5.17-12.812-9.199c-3.565-4.029-6.321-8.963-8.267-14.801c-1.947-5.834-2.919-12.516-2.919-20.043
			c0-6.34,0.902-12.191,2.711-17.555c1.807-5.361,4.413-9.984,7.821-13.866c3.407-3.88,7.584-6.917,12.533-9.11
			C944.75,281.934,950.365,280.836,956.647,280.836z M956.778,287.148c-4.557,0-8.64,0.711-12.248,2.133
			c-3.609,1.422-6.73,3.467-9.363,6.133c-2.633,2.667-4.763,5.866-6.39,9.6c-1.628,3.732-2.707,7.91-3.239,12.533h58.22
			c0-4.74-0.651-8.992-1.953-12.756c-1.303-3.762-3.136-6.947-5.502-9.555c-2.367-2.606-5.207-4.606-8.521-6
			C964.468,287.844,960.8,287.148,956.778,287.148z"/>
		<path d="M1062.862,293.281c-0.415,0.83-1.066,1.244-1.955,1.244c-0.652,0-1.497-0.369-2.533-1.111
			c-1.037-0.74-2.399-1.569-4.089-2.488c-1.688-0.918-3.764-1.747-6.222-2.489c-2.46-0.74-5.467-1.11-9.021-1.11
			c-3.2,0-6.119,0.458-8.755,1.375c-2.638,0.916-4.889,2.143-6.756,3.679c-1.866,1.536-3.319,3.323-4.355,5.362
			c-1.037,2.038-1.555,4.182-1.555,6.426c0,2.779,0.711,5.084,2.133,6.916s3.289,3.396,5.6,4.697
			c2.311,1.299,4.934,2.424,7.866,3.369c2.934,0.945,5.94,1.893,9.021,2.84c3.081,0.949,6.089,2,9.022,3.156
			c2.933,1.154,5.555,2.592,7.866,4.311c2.311,1.719,4.178,3.822,5.6,6.311s2.133,5.51,2.133,9.066
			c0,3.852-0.697,7.438-2.089,10.754c-1.393,3.32-3.408,6.193-6.044,8.623c-2.638,2.43-5.882,4.355-9.732,5.777
			c-3.853,1.422-8.237,2.133-13.155,2.133c-6.222,0-11.585-0.994-16.088-2.979c-4.504-1.984-8.533-4.576-12.088-7.777l2.044-3.021
			c0.296-0.473,0.622-0.828,0.978-1.066c0.355-0.236,0.858-0.355,1.511-0.355c0.77,0,1.719,0.475,2.845,1.422
			c1.125,0.949,2.592,1.971,4.399,3.066c1.808,1.098,4.059,2.119,6.756,3.066c2.695,0.949,6.028,1.422,9.999,1.422
			c3.733,0,7.022-0.518,9.866-1.555c2.845-1.037,5.214-2.445,7.111-4.223c1.896-1.777,3.333-3.865,4.311-6.266
			s1.467-4.934,1.467-7.6c0-2.963-0.711-5.422-2.134-7.377c-1.422-1.957-3.288-3.615-5.6-4.979
			c-2.311-1.361-4.933-2.518-7.866-3.467c-2.933-0.947-5.955-1.895-9.066-2.844c-3.11-0.947-6.133-1.984-9.065-3.111
			c-2.934-1.125-5.556-2.547-7.867-4.266c-2.311-1.719-4.177-3.807-5.6-6.268c-1.422-2.457-2.133-5.523-2.133-9.199
			c0-3.139,0.681-6.162,2.044-9.066c1.362-2.902,3.303-5.451,5.822-7.644c2.518-2.191,5.584-3.94,9.199-5.244
			c3.614-1.303,7.674-1.956,12.178-1.956c5.391,0,10.177,0.782,14.354,2.343c4.178,1.562,8.014,3.951,11.511,7.168L1062.862,293.281
			z"/>
	</g>
</g>
<g>
</g>
</svg>
