<svg xmlns="http://www.w3.org/2000/svg" width="1095.331" height="396.04" viewBox="0 17.932 1095.331 396.04"><path d="M353.354 192.942l-12.514-12.513 50.518-50.52-50.518-50.518 12.514-12.513 63.031 63.031z"/><path d="M116.054 331.521H19.651V313.91h96.403c19.466 0 33.37-9.271 44.957-25.492l88.987-134.87c14.832-20.394 33.833-32.444 59.326-32.444h94.547v17.612h-94.547c-19.467 0-33.372 9.271-44.959 25.491l-88.986 134.871c-14.831 20.392-34.298 32.443-59.325 32.443zM353.354 385.748l-12.514-12.514 50.518-50.517-50.518-50.52 12.514-12.514 63.031 63.034z"/><path d="M403.871 331.521H308.86c-25.028 0-44.494-12.051-59.326-32.443l-88.522-135.334c-11.587-15.758-25.491-25.491-44.957-25.491H19.651V120.64h96.403c25.027 0 44.494 12.051 59.325 32.443l88.986 135.334c11.587 15.758 25.492 25.492 44.959 25.492h94.547v17.612z"/><g><path d="M451.261 166.698V74.526h16.354c1.362 0 2.503.119 3.422.355.919.237 1.689.608 2.312 1.111.622.504 1.096 1.171 1.422 2 .325.831.607 1.837.845 3.022l1.511 8.622c3.378-5.214 7.169-9.333 11.377-12.355 4.207-3.022 8.8-4.533 13.777-4.533 4.207 0 7.585 1.008 10.133 3.022l-3.556 20.266c-.237 1.245-.711 2.12-1.422 2.622-.711.504-1.659.755-2.844.755-1.009 0-2.193-.133-3.556-.4-1.364-.267-3.082-.4-5.155-.4-7.23 0-12.919 3.853-17.065 11.555v56.53h-27.555zM586.543 166.698c-2.608 0-4.578-.355-5.911-1.066-1.333-.711-2.444-2.192-3.333-4.444l-1.956-5.066c-2.311 1.956-4.532 3.675-6.666 5.155a42.095 42.095 0 0 1-6.622 3.777 32.665 32.665 0 0 1-7.288 2.311c-2.578.503-5.438.756-8.577.756-4.208 0-8.03-.55-11.467-1.65-3.437-1.1-6.354-2.72-8.755-4.86-2.399-2.14-4.252-4.801-5.555-7.981-1.305-3.18-1.956-6.851-1.956-11.012 0-3.27.829-6.629 2.489-10.077 1.658-3.447 4.533-6.583 8.621-9.408 4.089-2.823 9.6-5.186 16.533-7.088 6.933-1.903 15.673-2.854 26.221-2.854v-3.947c0-5.441-1.111-9.375-3.333-11.796-2.223-2.422-5.378-3.633-9.467-3.633-3.259 0-5.926.355-7.999 1.067-2.075.711-3.927 1.511-5.556 2.4a80.49 80.49 0 0 1-4.755 2.4c-1.542.711-3.378 1.066-5.511 1.066-1.897 0-3.512-.458-4.845-1.378-1.333-.918-2.386-2.058-3.155-3.422l-4.978-8.622c5.569-4.918 11.747-8.578 18.532-10.978 6.784-2.4 14.058-3.6 21.821-3.6 5.569 0 10.591.904 15.065 2.711 4.474 1.808 8.267 4.326 11.378 7.555 3.11 3.23 5.495 7.066 7.155 11.511 1.658 4.444 2.488 9.304 2.488 14.577v57.597h-12.618zM554.9 149.899c3.556 0 6.667-.622 9.333-1.866 2.667-1.245 5.362-3.258 8.089-6.044v-12.622c-5.511 0-10.044.36-13.6 1.077-3.556.716-6.37 1.614-8.444 2.69s-3.511 2.301-4.311 3.676-1.2 2.868-1.2 4.481c0 3.169.858 5.396 2.578 6.68 1.718 1.287 4.235 1.928 7.555 1.928zM618.716 166.698V74.526h17.065c1.719 0 3.156.386 4.312 1.155 1.155.771 1.969 1.926 2.444 3.467l1.6 5.333a66.902 66.902 0 0 1 5.511-4.622 32.259 32.259 0 0 1 6.089-3.6c2.162-.978 4.503-1.747 7.021-2.311 2.519-.562 5.259-.844 8.222-.844 5.036 0 9.496.875 13.378 2.622 3.88 1.749 7.154 4.178 9.821 7.289 2.666 3.111 4.681 6.815 6.044 11.11 1.362 4.297 2.045 8.964 2.045 14V166.7h-27.555v-58.575c0-4.502-1.037-8.014-3.11-10.533-2.075-2.518-5.127-3.778-9.155-3.778-3.022 0-5.866.653-8.533 1.956-2.666 1.304-5.215 3.053-7.644 5.244V166.7h-27.555zM786.528 166.698c-1.72 0-3.155-.385-4.312-1.155-1.155-.77-1.971-1.925-2.443-3.467l-2.134-7.022a54.151 54.151 0 0 1-5.777 5.333 36.37 36.37 0 0 1-6.533 4.133c-2.342 1.156-4.859 2.044-7.555 2.667-2.697.622-5.615.934-8.756.934-4.799 0-9.243-1.067-13.332-3.2s-7.615-5.213-10.577-9.244c-2.964-4.029-5.289-8.962-6.978-14.799-1.688-5.836-2.533-12.488-2.533-19.955 0-6.873.947-13.258 2.844-19.155 1.896-5.896 4.578-10.991 8.045-15.288 3.466-4.295 7.628-7.658 12.487-10.088 4.858-2.429 10.222-3.644 16.089-3.644 4.739 0 8.755.697 12.044 2.089a34.817 34.817 0 0 1 8.933 5.466V33.639h27.554v133.06h-17.066zm-27.911-19.732c2.014 0 3.836-.191 5.467-.578 1.629-.385 3.125-.933 4.488-1.645a19.632 19.632 0 0 0 3.867-2.667c1.214-1.066 2.413-2.311 3.6-3.733V99.235c-2.134-2.311-4.4-3.925-6.8-4.844-2.4-.918-4.934-1.378-7.6-1.378-2.549 0-4.889.504-7.021 1.511-2.134 1.008-3.986 2.622-5.556 4.844-1.57 2.222-2.8 5.111-3.688 8.667-.889 3.555-1.334 7.853-1.334 12.888 0 4.859.356 8.948 1.067 12.266.711 3.319 1.702 6 2.978 8.044 1.273 2.044 2.8 3.511 4.577 4.4 1.779.889 3.763 1.333 5.955 1.333zM865.988 73.103c6.991 0 13.362 1.097 19.11 3.289 5.747 2.193 10.68 5.333 14.799 9.422 4.118 4.089 7.318 9.052 9.6 14.888 2.28 5.837 3.422 12.399 3.422 19.688 0 7.348-1.142 13.97-3.422 19.866-2.281 5.896-5.481 10.903-9.6 15.021-4.119 4.12-9.052 7.289-14.799 9.511-5.748 2.222-12.119 3.333-19.11 3.333-7.052 0-13.466-1.111-19.243-3.333s-10.755-5.391-14.933-9.511c-4.178-4.118-7.408-9.125-9.688-15.021-2.282-5.896-3.422-12.518-3.422-19.866 0-7.289 1.14-13.851 3.422-19.688 2.28-5.836 5.511-10.799 9.688-14.888 4.178-4.088 9.155-7.229 14.933-9.422 5.777-2.192 12.191-3.289 19.243-3.289zm0 74.574c6.34 0 11.007-2.236 13.999-6.711 2.992-4.474 4.489-11.273 4.489-20.399 0-9.125-1.497-15.91-4.489-20.354s-7.659-6.667-13.999-6.667c-6.519 0-11.288 2.222-14.311 6.667-3.021 4.444-4.533 11.23-4.533 20.354 0 9.126 1.512 15.925 4.533 20.399 3.022 4.475 7.792 6.711 14.311 6.711zM928.027 166.698V74.526h17.065c1.719 0 3.156.386 4.312 1.155 1.155.771 1.969 1.926 2.444 3.467l1.511 4.977a51.014 51.014 0 0 1 4.8-4.399 30.812 30.812 0 0 1 5.378-3.467 29.941 29.941 0 0 1 6.222-2.311c2.222-.562 4.666-.844 7.333-.844 5.569 0 10.177 1.438 13.821 4.311 3.645 2.875 6.413 6.71 8.311 11.51 1.54-2.844 3.422-5.273 5.645-7.289 2.222-2.014 4.622-3.644 7.199-4.888a34.964 34.964 0 0 1 8.178-2.756 42.477 42.477 0 0 1 8.577-.889c5.273 0 9.955.786 14.044 2.355 4.089 1.571 7.511 3.853 10.266 6.844 2.756 2.993 4.845 6.666 6.267 11.021s2.133 9.289 2.133 14.799v58.575h-27.554v-58.575c0-9.54-4.089-14.311-12.266-14.311-3.733 0-6.831 1.23-9.289 3.689-2.459 2.459-3.688 6-3.688 10.622v58.575H981.18v-58.575c0-5.273-1.038-8.978-3.111-11.11-2.075-2.133-5.126-3.2-9.155-3.2-2.488 0-4.844.564-7.066 1.689-2.222 1.126-4.311 2.637-6.266 4.533v66.663h-27.555zM454.994 370.699v-88.44h4.622c1.54 0 2.429.741 2.666 2.222l.8 12.8a55.943 55.943 0 0 1 5.512-6.667 36.752 36.752 0 0 1 6.266-5.199 29.026 29.026 0 0 1 7.111-3.378c2.518-.8 5.169-1.2 7.955-1.2 6.458 0 11.613 1.882 15.466 5.645 3.851 3.764 6.458 8.992 7.821 15.689 1.064-3.674 2.559-6.845 4.482-9.511 1.922-2.667 4.126-4.874 6.61-6.622a27.45 27.45 0 0 1 8.12-3.911 31.873 31.873 0 0 1 9.008-1.289c4.378 0 8.312.727 11.804 2.178 3.49 1.453 6.462 3.6 8.918 6.444 2.455 2.845 4.333 6.342 5.636 10.489 1.301 4.148 1.952 8.889 1.952 14.221v56.531H561.3V314.17c0-8.65-1.867-15.244-5.6-19.777-3.733-4.532-9.066-6.799-15.999-6.799-3.082 0-6.03.563-8.845 1.688-2.814 1.126-5.304 2.8-7.466 5.021-2.164 2.223-3.882 4.993-5.155 8.311-1.275 3.32-1.911 7.17-1.911 11.555V370.7h-8.444v-56.531c0-8.592-1.719-15.168-5.155-19.732-3.438-4.562-8.443-6.844-15.021-6.844-4.8 0-9.244 1.438-13.332 4.311-4.089 2.875-7.733 6.859-10.933 11.955v66.842h-8.445zM652.848 370.699c-1.777 0-2.875-.83-3.289-2.488l-1.244-11.289c-2.431 2.371-4.844 4.504-7.244 6.4a43.363 43.363 0 0 1-7.511 4.799c-2.608 1.305-5.422 2.297-8.444 2.979-3.021.68-6.341 1.021-9.954 1.021-3.022 0-5.956-.445-8.8-1.334-2.845-.889-5.364-2.25-7.556-4.088-2.192-1.836-3.955-4.191-5.288-7.066-1.333-2.873-2-6.324-2-10.355 0-3.732 1.066-7.199 3.2-10.398 2.133-3.201 5.466-5.984 9.999-8.355 4.533-2.369 10.369-4.268 17.51-5.689s15.718-2.25 25.732-2.488v-9.244c0-8.178-1.764-14.473-5.289-18.888-3.525-4.413-8.755-6.621-15.688-6.621-4.267 0-7.896.593-10.889 1.777-2.993 1.186-5.526 2.488-7.6 3.911-2.074 1.422-3.764 2.726-5.066 3.911-1.304 1.185-2.399 1.777-3.288 1.777-1.187 0-2.075-.533-2.667-1.599l-1.511-2.578c4.622-4.622 9.479-8.117 14.577-10.488 5.095-2.369 10.873-3.556 17.332-3.556 4.74 0 8.889.756 12.443 2.267 3.556 1.512 6.503 3.675 8.845 6.489 2.34 2.814 4.103 6.222 5.288 10.221 1.185 4 1.778 8.459 1.778 13.377v57.598h-3.376zm-35.554-4.711c3.436 0 6.591-.369 9.466-1.111 2.874-.74 5.54-1.777 8-3.111a39.12 39.12 0 0 0 6.889-4.756 97.839 97.839 0 0 0 6.311-5.955v-23.02c-8.415.236-15.659.875-21.732 1.91-6.074 1.037-11.081 2.443-15.021 4.223-3.941 1.777-6.844 3.896-8.71 6.355-1.867 2.459-2.801 5.258-2.801 8.398 0 2.965.489 5.525 1.467 7.689.978 2.162 2.267 3.941 3.867 5.332 1.6 1.393 3.466 2.416 5.6 3.066 2.131.654 4.353.98 6.664.98zM706.979 372.121c-5.986 0-10.638-1.658-13.955-4.979-3.319-3.316-4.978-8.443-4.978-15.377v-60.441h-12.711c-.652 0-1.186-.178-1.6-.533-.415-.355-.622-.858-.622-1.511v-3.289l15.11-1.066 2.111-31.643a2.452 2.452 0 0 1 .658-1.422c.38-.414.895-.622 1.54-.622h3.957v33.776h27.82v6.311h-27.82v59.998c0 2.43.311 4.52.933 6.266.622 1.748 1.48 3.186 2.578 4.311a10.09 10.09 0 0 0 3.866 2.49c1.48.533 3.08.799 4.8.799 2.133 0 3.969-.311 5.511-.934 1.54-.621 2.873-1.303 4-2.043 1.125-.74 2.044-1.422 2.755-2.045s1.273-.934 1.689-.934c.474 0 .947.297 1.422.889l2.311 3.734c-2.252 2.488-5.11 4.488-8.577 5.998-3.465 1.511-7.066 2.267-10.798 2.267zM804.483 294.08a9.083 9.083 0 0 1-.844.756c-.267.208-.638.311-1.111.311-.593 0-1.408-.399-2.444-1.2-1.037-.8-2.415-1.673-4.133-2.622-1.72-.947-3.867-1.821-6.444-2.622-2.578-.8-5.704-1.199-9.377-1.199-5.098 0-9.615.903-13.556 2.711-3.941 1.808-7.259 4.399-9.955 7.777-2.696 3.377-4.755 7.465-6.177 12.266-1.423 4.799-2.134 10.191-2.134 16.176 0 6.223.726 11.734 2.178 16.533 1.451 4.799 3.511 8.844 6.178 12.133 2.666 3.289 5.896 5.793 9.688 7.51 3.791 1.721 7.999 2.578 12.621 2.578 4.267 0 7.836-.502 10.711-1.51 2.873-1.008 5.244-2.104 7.11-3.289 1.867-1.186 3.348-2.281 4.444-3.289s1.97-1.512 2.622-1.512c.77 0 1.362.297 1.778.889l2.311 2.846c-1.364 1.777-3.082 3.438-5.155 4.977-2.075 1.541-4.415 2.875-7.021 4-2.608 1.127-5.438 2-8.489 2.623-3.052.621-6.236.932-9.555.932-5.63 0-10.771-1.021-15.422-3.066-4.652-2.043-8.651-5.006-11.999-8.889-3.349-3.879-5.955-8.635-7.821-14.266-1.867-5.629-2.8-12.027-2.8-19.199 0-6.754.889-12.916 2.666-18.486s4.369-10.37 7.777-14.4c3.407-4.029 7.584-7.155 12.533-9.378 4.946-2.222 10.621-3.333 17.021-3.333 5.747 0 10.858.92 15.333 2.756 4.474 1.837 8.369 4.326 11.688 7.466l-2.222 3.02zM827.146 370.699V241.372h8.444v55.998c4.088-5.036 8.755-9.052 13.999-12.044s11.124-4.489 17.644-4.489c4.857 0 9.14.771 12.844 2.312 3.702 1.541 6.769 3.764 9.199 6.666 2.429 2.904 4.267 6.399 5.511 10.489 1.244 4.088 1.867 8.711 1.867 13.865V370.7h-8.444v-56.531c0-8.295-1.897-14.799-5.688-19.509-3.793-4.711-9.6-7.066-17.422-7.066-5.808 0-11.199 1.497-16.177 4.488-4.978 2.993-9.422 7.097-13.332 12.31v66.309h-8.445zM956.647 280.836c4.978 0 9.585.86 13.822 2.578 4.235 1.719 7.91 4.222 11.021 7.511 3.11 3.288 5.54 7.333 7.288 12.133 1.747 4.799 2.622 10.311 2.622 16.531 0 1.305-.192 2.193-.577 2.666-.385.477-.992.713-1.819.713h-63.822v1.688c0 6.637.77 12.475 2.312 17.51 1.54 5.039 3.732 9.26 6.577 12.666 2.845 3.408 6.28 5.971 10.311 7.689 4.029 1.719 8.533 2.578 13.511 2.578 4.444 0 8.295-.49 11.555-1.467 3.258-.979 6-2.074 8.222-3.289 2.222-1.213 3.984-2.311 5.289-3.289 1.303-.977 2.251-1.467 2.844-1.467.77 0 1.362.297 1.777.889l2.312 2.846c-1.422 1.777-3.304 3.438-5.645 4.977-2.341 1.541-4.948 2.859-7.821 3.955-2.875 1.098-5.955 1.971-9.244 2.623-3.289.65-6.593.977-9.91.977-6.045 0-11.556-1.053-16.533-3.154-4.978-2.104-9.249-5.17-12.812-9.199-3.565-4.029-6.321-8.963-8.267-14.801-1.947-5.834-2.919-12.516-2.919-20.043 0-6.34.902-12.191 2.711-17.555 1.807-5.361 4.413-9.984 7.821-13.866 3.407-3.88 7.584-6.917 12.533-9.11 4.944-2.192 10.559-3.29 16.841-3.29zm.131 6.312c-4.557 0-8.64.711-12.248 2.133-3.609 1.422-6.73 3.467-9.363 6.133-2.633 2.667-4.763 5.866-6.39 9.6-1.628 3.732-2.707 7.91-3.239 12.533h58.22c0-4.74-.651-8.992-1.953-12.756-1.303-3.762-3.136-6.947-5.502-9.555-2.367-2.606-5.207-4.606-8.521-6-3.314-1.392-6.982-2.088-11.004-2.088zM1062.862 293.281c-.415.83-1.066 1.244-1.955 1.244-.652 0-1.497-.369-2.533-1.111-1.037-.74-2.399-1.569-4.089-2.488-1.688-.918-3.764-1.747-6.222-2.489-2.46-.74-5.467-1.11-9.021-1.11-3.2 0-6.119.458-8.755 1.375-2.638.916-4.889 2.143-6.756 3.679-1.866 1.536-3.319 3.323-4.355 5.362a13.99 13.99 0 0 0-1.555 6.426c0 2.779.711 5.084 2.133 6.916s3.289 3.396 5.6 4.697c2.311 1.299 4.934 2.424 7.866 3.369 2.934.945 5.94 1.893 9.021 2.84 3.081.949 6.089 2 9.022 3.156 2.933 1.154 5.555 2.592 7.866 4.311 2.311 1.719 4.178 3.822 5.6 6.311s2.133 5.51 2.133 9.066c0 3.852-.697 7.438-2.089 10.754a24.465 24.465 0 0 1-6.044 8.623c-2.638 2.43-5.882 4.355-9.732 5.777-3.853 1.422-8.237 2.133-13.155 2.133-6.222 0-11.585-.994-16.088-2.979-4.504-1.984-8.533-4.576-12.088-7.777l2.044-3.021c.296-.473.622-.828.978-1.066.355-.236.858-.355 1.511-.355.77 0 1.719.475 2.845 1.422 1.125.949 2.592 1.971 4.399 3.066 1.808 1.098 4.059 2.119 6.756 3.066 2.695.949 6.028 1.422 9.999 1.422 3.733 0 7.022-.518 9.866-1.555 2.845-1.037 5.214-2.445 7.111-4.223 1.896-1.777 3.333-3.865 4.311-6.266s1.467-4.934 1.467-7.6c0-2.963-.711-5.422-2.134-7.377-1.422-1.957-3.288-3.615-5.6-4.979-2.311-1.361-4.933-2.518-7.866-3.467a585.721 585.721 0 0 0-9.066-2.844 134.301 134.301 0 0 1-9.065-3.111c-2.934-1.125-5.556-2.547-7.867-4.266a20.578 20.578 0 0 1-5.6-6.268c-1.422-2.457-2.133-5.523-2.133-9.199 0-3.139.681-6.162 2.044-9.066 1.362-2.902 3.303-5.451 5.822-7.644 2.518-2.191 5.584-3.94 9.199-5.244 3.614-1.303 7.674-1.956 12.178-1.956 5.391 0 10.177.782 14.354 2.343 4.178 1.562 8.014 3.951 11.511 7.168l-1.868 2.935z"/></g></svg>